@startuml
title 基于GitHub的实验管理平台--类图
class user {
    <b>user_id</b> （用户ID）
    name （用户真实姓名）
    github_username （用户GitHub账号）
    password （用户密码）
    disable （用户是否禁用）
}
class teacher {
    <b>teacher_id</b> （老师工号）
    department （老师所属部门）
}
class student {
    <b>student_id</b> （学号）
    class （班级）
    result_sum（成绩汇总）
    web_sum （网站正确与否汇总）
}
user <|- student
user <|-- teacher
class grade {
    <b>student_id</b> （学号）
    <b>test_id</b> （实验编号）
    result （分数）
    memo （评价）
    update_date （评改日期）
}

class term {
    <b>term_id</b> (学期编号)
    name (名称)
}

class course {
    <b>course_id</b> (课程编号)
    <b>teacher_id</b> （老师工号）
    name (课程名称)

}

class test {
    <b>test_id</b> （实验编号）
    title (实验名称)
    date (实验日期)
}

student "1" -- "n"  term
term "1" -- "n" course
course "1" -- "n" test
test "1" -- "n"  grade


@enduml